<?xml version="1.0" encoding="utf-8"?>
<!-- Generator: Adobe Illustrator 18.0.0, SVG Export Plug-In . SVG Version: 6.00 Build 0)  -->
<!DOCTYPE svg PUBLIC "-//W3C//DTD SVG 1.1//EN" "http://www.w3.org/Graphics/SVG/1.1/DTD/svg11.dtd">
<svg version="1.1" id="Livello_2" xmlns="http://www.w3.org/2000/svg" xmlns:xlink="http://www.w3.org/1999/xlink" x="0px" y="0px"
	 viewBox="0 0 283.5 283.5" enable-background="new 0 0 283.5 283.5" xml:space="preserve">
<g id="Livello_3">
	<path fill="#686868" d="M77.7,22.4C76,8.2,86.5,4.8,97.7,1.2c0-15.4,0-30.8,0-47.5c-12.9,1.4-24.4,6.2-35.2,8.6
		c-4.5,5.1-3.5,10-3.5,14.5C58.8-9,59.2,5.1,58.7,19.2c-0.5,13.5-11.4,20.1-24.8,15.4c-4.1-7.5-0.3-12.4,5.6-16.6
		c0,0,0.7-0.7,0.7-0.7c4.1-1.2,8.1-2.5,13.1-3.9c0-19.7,0-38.8,0-58.6c16.2-6.7,32.4-10.2,47.5-14.1c4.1,3.5,3.5,6.8,3.5,9.9
		c0.1,18,0.2,36.1,0,54.1C104,21.7,94.2,28.1,77.7,22.4L77.7,22.4z"/>
	<path fill="#686868" d="M77.7,304.8c-1.6-14.2,8.8-17.6,20-21.2c0-15.4,0-30.8,0-47.5c-12.9,1.4-24.4,6.2-35.2,8.6
		c-4.5,5.1-3.5,10-3.5,14.5c-0.1,14.1,0.3,28.2-0.2,42.3c-0.5,13.5-11.4,20.1-24.8,15.4c-4.1-7.5-0.3-12.4,5.6-16.6
		c0,0,0.7-0.7,0.7-0.7c4.1-1.2,8.1-2.5,13.1-3.9c0-19.7,0-38.8,0-58.6c16.2-6.7,32.4-10.2,47.5-14.1c4.1,3.5,3.5,6.8,3.5,9.9
		c0.1,18,0.2,36.1,0,54.1C104,304.1,94.2,310.5,77.7,304.8L77.7,304.8z"/>
</g>
<g id="Livello_4">
	<path fill="#686868" d="M98.9,150.7c7.8-1.5,15.7-2.7,23.9-8.4c0-14.2,0-29.2,0-44.3c0-5.6-0.1-11.2,1.7-16.6
		c3.6-10.7,14.1-14.3,24.7-8.5c1.1,12.1-0.7,14.1-19.9,20.9c-2.2,19.2,0.4,39.2-1.5,60c-15.9,5.8-32.1,10.7-47.9,13.4
		c-3.1-1.8-3.1-3.8-3.1-5.8c0-20.7,0.1-41.5,0.1-62.2c0-7.8,4.1-12.9,11.1-15.3c5.8-2,11.8-2.8,15.4,4.1
		c-2.5,11.4-2.5,11.4-20.1,19.5c-1.2,14.7-0.9,29.9-0.2,45.2C89.5,154.4,94.2,152.5,98.9,150.7L98.9,150.7z"/>
</g>
<g id="Livello_5">
	<path fill="#686868" d="M252.1-22.5c-0.1-3,1-6.8-5.2-9c-2.8,19.2,0.4,38.3-1.9,56.7c-8.7,5-20.7,5.6-20.8,19.3
		c3.5,6.1,8.6,7.4,15.3,4.8c9.2-3.5,13-10.6,13.1-19.7C252.8,12.2,252.4-5.2,252.1-22.5z M228.5,42.9c4.3-6.4,8.9-7.4,15.8-7.2
		C240.5,42.5,235.6,43,228.5,42.9z"/>
	<path fill="#686868" d="M252.4,260.9c-0.1-3,1-6.8-5.2-9c-2.8,19.2,0.4,38.3-1.9,56.7c-8.7,5-20.7,5.6-20.8,19.3
		c3.5,6.1,8.6,7.4,15.3,4.8c9.2-3.5,13-10.6,13.1-19.7C253.1,295.7,252.7,278.3,252.4,260.9z M228.8,326.4c4.3-6.4,8.9-7.4,15.8-7.2
		C240.8,325.9,236,326.4,228.8,326.4z"/>
</g>
<g id="Livello_6">
	<path fill="#686868" d="M16,206.5c0.5-3.3-1.4-11.3,1-12.2c5.8-2.2,6-4.1,5.7-8.1c-1-5.1-5.2-0.5-6-2.4c-2.2-5.4,3.3-21.3-2-21.2
		C5,167.1,15.8,184.4,3.2,186c-7.2,1.3,0.8-25.8-8.9-20.2c-3.5,8.1-0.1,21.7-2.3,23.6c-3.9,3.3-4.3,1.6-7.7,3.7
		c-0.7,16.3,7.5,4.9,8.2,7.2c0.5,1.7,1.8,11.5,0.5,13.3c-2,2.8-13.5,3.5-9.2,12.2c1.4,2.8,7.5-1.2,7.7,2.7c0.4,7.1-1.5,15.4,4.3,15
		c10-4.3-2.2-15.8,11.6-17.3c4.1,5.2-0.3,11.8,7.2,15.8c4.2-1.4,1-11.3,2-18.4c0.6-4.6,8.3-5.8,6.8-9.2
		C22.4,208.2,23.7,202.8,16,206.5z M1.3,211.8c-0.9-10.5-0.9-10.5,7.1-13.9C9.8,204.1,11.3,209.7,1.3,211.8z"/>
	<path fill="#686868" d="M299.8,206.5c0.5-3.3-1.4-11.3,1-12.2c5.8-2.2,6-4.1,5.7-8.1c-1-5.1-5.2-0.5-6-2.4
		c-2.2-5.4,3.3-21.3-2-21.2c-9.7,4.5,1.1,21.8-11.5,23.4c-7.2,1.3,0.8-25.8-8.9-20.2c-3.5,8.1-0.1,21.7-2.3,23.6
		c-3.9,3.3-4.3,1.6-7.7,3.7c-0.7,16.3,7.5,4.9,8.2,7.2c0.5,1.7,1.8,11.5,0.5,13.3c-2,2.8-13.5,3.5-9.2,12.2c1.4,2.8,7.5-1.2,7.7,2.7
		c0.4,7.1-1.5,15.4,4.3,15c10-4.3-2.2-15.8,11.6-17.3c4.1,5.2-0.3,11.8,7.2,15.8c4.2-1.4,1-11.3,2-18.4c0.6-4.6,8.3-5.8,6.8-9.2
		C306.2,208.2,307.4,202.8,299.8,206.5z M285.1,211.8c-0.9-10.5-0.9-10.5,7.1-13.9C293.6,204.1,295.1,209.7,285.1,211.8z"/>
</g>
<g id="Livello_7">
	<path fill="#686868" d="M178.2-6.3c-3.4-12.6,2-25.6-5.3-37.4c-7.6,11-3.8,23.7-4.4,35.6c-0.7,12.8-0.2,25.7-0.2,38.5
		c1.1,0.3,2.1,0.5,3.2,0.8c9.7-8.7,20.9-16.3,23.7-29.5C192.3-9.1,184.6-6.5,178.2-6.3z M178.2,14.6c-1.2-5.6-1.7-9.6,3.3-14.4
		C184.8,6.7,182.2,10.1,178.2,14.6z"/>
	<path fill="#686868" d="M178.2,277c-3.4-12.6,2-25.6-5.3-37.4c-7.6,11-3.8,23.7-4.4,35.6c-0.7,12.8-0.2,25.7-0.2,38.5
		c1.1,0.3,2.1,0.5,3.2,0.8c9.7-8.7,20.9-16.3,23.7-29.5C192.3,274.2,184.6,276.8,178.2,277z M178.2,297.9c-1.2-5.6-1.7-9.6,3.3-14.4
		C184.8,290,182.2,293.4,178.2,297.9z"/>
</g>
<g id="Livello_8">
	<path fill="#686868" d="M213.9,116.8c-1.9-2.7-4-5.3-8.7-6.3c-2.5,14.1-1,27.8-1.4,41.4c-0.1,4.8,0.3,9.6-2.3,14
		c-5.7,9.6-15.4,10.6-24.8,2c0.2-13,11.2-14.7,20.7-18.4c2.9-9.9,1.2-20,1.3-30c0.1-9.4,0-18.9,0-29.4
		c20.6,18.1,24.4,27.1,17.3,41.6c-0.6-4.4-1.1-7.9-1.6-11.4c0,0,0-1.2,0-1.2c0,0-0.3-1.1-0.3-1.1
		C214.1,117.9,213.9,116.8,213.9,116.8z"/>
</g>
</svg>
