<?xml version="1.0" encoding="utf-8"?>
<!-- Generator: Adobe Illustrator 18.0.0, SVG Export Plug-In . SVG Version: 6.00 Build 0)  -->
<!DOCTYPE svg PUBLIC "-//W3C//DTD SVG 1.1//EN" "http://www.w3.org/Graphics/SVG/1.1/DTD/svg11.dtd">
<svg version="1.1" xmlns="http://www.w3.org/2000/svg" xmlns:xlink="http://www.w3.org/1999/xlink" x="0px" y="0px"
	 viewBox="0 0 283.5 283.5" enable-background="new 0 0 283.5 283.5" xml:space="preserve">
<g id="Livello_2">
	<linearGradient id="SVGID_1_" gradientUnits="userSpaceOnUse" x1="-17.982" y1="139.5225" x2="295.5315" y2="139.5225">
		<stop  offset="0" style="stop-color:#171326"/>
		<stop  offset="1" style="stop-color:#373B47"/>
	</linearGradient>
	<rect x="-18" y="-13" fill="url(#SVGID_1_)" width="313.5" height="305"/>
</g>
<g id="Livello_1">
	<g>
		<path fill="#FFFFFF" d="M123.8,163.4c0.7-6.8,1.3-13.7,2.2-20.5c1.6-13.2,3.3-26.3,5.1-39.5c0.2-1.5,0.9-2.9,1.5-4.3
			c0.7-1.7,2-3,4-2.9c2,0.1,3.4,1.3,3.9,3.1c0.9,3.1,1.7,6.2,2.1,9.3c1.3,13,2.4,26.1,3.6,39.1c0.4,4,0.7,8,1.3,12
			c0.4-5,0.7-10.1,1.1-15.1c1-10.7,2-21.4,3-32.1c0.1-1.3,0.4-2.8,1.2-3.8c0.8-1,2.2-2,3.4-2c1,0,2.8,1,3.1,1.9
			c1.1,3.8,2,7.8,2.5,11.7c1.4,12.8,2.5,25.6,3.7,38.4c0.1,0.9,0.3,1.8,0.9,2.7c1-8.2,2-16.5,3.1-24.7c0.6-4.5,1.3-9,2.1-13.4
			c0.4-1.8,1.1-3.7,2.1-5.3c0.5-0.9,1.9-1.7,2.9-1.7c1,0,2.3,0.9,2.9,1.8c2.8,4.7,2.6,10.2,3.2,15.4c0.8,7.1,1.4,14.2,2.5,21.4
			c0.7-3.7,1.3-7.4,2.1-11.1c0.9-4.4,1.8-8.9,2.7-13.3c0.1-0.6,0.4-1.1,0.6-1.6c0.9-1.9,2.1-3.6,4.5-3.4c2.3,0.2,3.6,1.9,3.9,4
			c0.9,5.2,1.6,10.5,2.3,15.7c0.4,2.9,0.8,5.8,1.9,8.8c1.2-3.5,2.4-7,3.7-10.5c0.8-2,1.7-4,2.7-5.9c0.9-1.6,2.4-2.8,4.2-2
			c1.3,0.6,2.9,2,3.2,3.4c0.7,3.2,0.7,6.5,1.1,9.7c0.1,1,0.4,1.9,0.7,3.3c1.8-1.1,3.4-2,4.9-3c8-4.9,16.3-5.1,24.8-1.4
			c2.5,1.1,3.2,2.6,2.5,4.5c-0.8,2-2.5,2.6-5,1.5c-8.2-3.5-15.6-2.4-22.3,3.7c-3.7,3.3-9,1.5-11-3.6c-0.3-0.8-0.5-1.7-1-3.3
			c-1,2.5-1.6,4.5-2.5,6.5c-0.8,1.8-1.5,3.6-2.6,5.1c-2.5,3.5-6.8,3.3-8.3-0.7c-1.4-3.9-1.9-8.1-2.8-12.2c-0.4-2-0.6-4.1-1.3-6.2
			c-0.8,4.3-1.4,8.7-2.3,13c-1,4.5-2.1,9-3.6,13.3c-0.4,1.2-2.2,2.3-3.5,2.6c-1.7,0.3-3.3-0.8-3.7-2.7c-1-4.8-2.1-9.7-2.7-14.5
			c-0.8-5.7-1.1-11.5-2.1-17.3c-0.5,3.6-0.9,7.2-1.4,10.8c-1,7.4-2,14.8-3.1,22.2c-0.3,2-0.9,3.9-1.6,5.8c-0.6,1.7-1.8,3-3.9,3
			c-2.2,0-3.5-1.4-4-3.3c-0.9-3.1-1.7-6.2-2-9.3c-1.2-10.5-2.1-21.1-3.2-31.6c-0.1-0.5-0.2-1.1-0.7-1.6c-0.3,3.2-0.5,6.4-0.8,9.6
			c-1,11.9-2,23.8-3,35.7c-0.1,1.6-0.5,3.1-0.9,4.7c-0.5,2-1.5,3.7-3.8,3.8c-2.4,0.1-3.7-1.6-4.1-3.7c-0.7-3.8-1.5-7.6-1.8-11.4
			c-1.5-16.9-2.8-33.8-4.2-50.7c-0.2-2.8-0.6-5.5-1.4-8.3c-0.7,5.6-1.4,11.3-2.1,16.9c-1.9,16.1-3.7,32.2-5.6,48.3
			c-0.3,2.2-0.9,4.4-1.6,6.6c-0.5,1.7-1.7,2.9-3.7,2.9c-2.1,0-3.4-1.2-3.8-3.1c-0.8-4.4-1.6-8.8-1.9-13.2c-0.8-11.7-1.4-23.5-2-35.2
			c0-0.7-0.1-1.3-0.4-2c-1.1,10.1-2.1,20.2-3.2,30.3c-0.5,4.1-1.2,8.1-2,12.2c-0.4,2-1.4,3.9-3.9,3.9c-2.7-0.1-3.6-2.1-3.9-4.2
			c-0.6-3.7-1-7.5-1.2-11.3c-0.5-8.1-0.8-16.3-1.1-24.4c0-0.5-0.1-0.9-0.6-1.4c-0.4,3.4-0.8,6.9-1.3,10.3c-1,6.7-2,13.5-3.1,20.2
			c-0.2,1.1-0.5,2.3-1.1,3c-0.8,0.9-2.1,1.9-3.2,1.9c-1.1,0-2.6-1-3.1-2c-0.8-1.4-1-3.2-1.1-4.8c-0.5-7.1-0.9-14.2-1.5-21.3
			c-0.9,4.9-1.7,9.9-2.6,14.8c-0.3,1.6-0.8,3.2-1.4,4.8c-0.7,2-2.1,3.2-4.2,3c-2-0.2-3.2-1.7-3.4-3.6c-0.5-4.2-0.8-8.4-1.2-12.5
			c-0.1-0.7,0-1.5-0.5-2.3c-0.5,2.2-0.9,4.5-1.4,6.6c-0.4,1.7-0.7,3.6-1.7,5c-0.7,1.1-2.4,2.2-3.6,2.2c-1.2-0.1-2.7-1.4-3.2-2.6
			c-0.9-1.7-1-3.8-1.5-5.8c-0.2,0.2-0.5,0.3-0.6,0.5c-2.2,4.3-7,4.7-9.6,0.7c-3.3-4.9-6.5-6.2-12.2-5c-2.8,0.6-4.5-0.2-5-2.3
			c-0.4-1.9,1-3.4,3.6-4c7.1-1.7,13.1,0.1,18.3,6.4c0.6-3.2,1.2-5.8,1.7-8.4c0.5-2.6,0.9-5.3,1.5-7.9c0.4-1.7,1.5-2.7,3.4-2.7
			c1.9,0,3,1.1,3.4,2.8c0.5,2.1,0.8,4.2,1.3,7c1-4.2,1.9-7.8,2.7-11.3c0.1-0.5,0.2-1,0.4-1.5c0.8-1.8,1.9-3.2,4.2-3
			c2.1,0.2,3.2,1.6,3.5,3.4c0.6,3.6,0.9,7.3,1.3,11c0.1,0.6,0.1,1.2,0.4,1.8c0.9-5.1,1.8-10.3,2.8-15.4c0.3-1.5,0.7-3.2,1.6-4.5
			c0.7-1,2.2-2.2,3.3-2.1c1.2,0.1,2.9,1.3,3.3,2.4c0.8,2.2,1.1,4.7,1.3,7.1c0.4,4.4,0.5,8.8,1.1,13.2c0.6-4.4,1.1-8.7,1.8-13
			c0.7-4.4,1.6-8.7,2.6-13.1c0.5-2.1,1.8-3.5,4.1-3.4c2.2,0.1,3.4,1.5,3.6,3.6c0.9,8.7,1.6,17.4,2.4,26.1c0.1,1.7,0,3.4,0,5.1
			c0.2,0,0.4,0,0.6,0c0.1-1,0.2-1.9,0.3-2.9c1.3-11.3,2.7-22.7,4-34c0.1-1.1,0.3-2.4,0.9-3.1c1-1.1,2.4-2.5,3.8-2.7
			c1.7-0.2,3.2,1.1,3.5,3c0.7,5.2,1.6,10.5,1.9,15.7c0.8,12.2,1.4,24.5,2,36.8c0,0.5,0.1,1,0.1,1.5
			C123.6,163.4,123.7,163.4,123.8,163.4z"/>
	</g>
</g>
</svg>
